<svg width="144" height="168" viewBox="0 0 144 168" fill="none" xmlns="http://www.w3.org/2000/svg">
<rect width="144" height="168" rx="4" fill="white"/>
<rect x="24" y="86" width="97" height="8" rx="4" fill="#E6E6E6"/>
<rect x="24" y="102" width="97" height="8" rx="4" fill="#E6E6E6"/>
<rect x="24" y="118" width="47" height="8" rx="4" fill="#E6E6E6"/>
<rect x="83" y="107" width="53" height="53" fill="#F4F4F4"/>
<circle cx="94" cy="117" r="3.5" fill="#00B5A0" stroke="#00B5A0"/>
<circle cx="94" cy="151" r="4" fill="#00B5A0"/>
<rect x="102" y="113" width="24" height="8" rx="4" fill="#00B5A0"/>
<rect x="102" y="147" width="24" height="8" rx="4" fill="#00B5A0"/>
<rect x="90" y="127" width="38" height="8" rx="4" fill="#00B5A0"/>
<rect x="24" y="48" width="45" height="28" fill="#00B5A0"/>
<rect x="76" y="48" width="44" height="28" fill="#E6E6E6"/>
<path d="M24.079 35V26.498H25.626L28.278 31.282L29.149 33.089H29.201C29.1663 32.647 29.123 32.1747 29.071 31.672C29.0277 31.1607 29.006 30.6667 29.006 30.19V26.498H30.449V35H28.902L26.25 30.216L25.379 28.409H25.327C25.3617 28.8597 25.4007 29.332 25.444 29.826C25.496 30.32 25.522 30.8053 25.522 31.282V35H24.079ZM33.9103 35V26.498H39.0323V27.772H35.4183V29.943H38.4733V31.217H35.4183V33.726H39.1623V35H33.9103ZM43.0504 35L41.3604 26.498H42.9074L43.6484 30.788C43.7177 31.2473 43.787 31.7023 43.8564 32.153C43.9257 32.6037 43.995 33.0543 44.0644 33.505H44.1164C44.2117 33.0543 44.3027 32.6037 44.3894 32.153C44.4847 31.6937 44.58 31.2387 44.6754 30.788L45.7154 26.498H47.0284L48.0684 30.788C48.1637 31.23 48.259 31.6807 48.3544 32.14C48.4497 32.5907 48.545 33.0457 48.6404 33.505H48.6924C48.7617 33.0457 48.8267 32.5907 48.8874 32.14C48.9567 31.6893 49.026 31.2387 49.0954 30.788L49.8364 26.498H51.2794L49.6544 35H47.7824L46.7294 30.528C46.66 30.1987 46.5907 29.8737 46.5214 29.553C46.4607 29.2237 46.4044 28.8943 46.3524 28.565H46.3004C46.2397 28.8943 46.1747 29.2237 46.1054 29.553C46.0447 29.8737 45.9797 30.1987 45.9104 30.528L44.8834 35H43.0504ZM57.8054 35V26.498H62.9404V27.772H59.3134V30.177H62.4074V31.451H59.3134V35H57.8054ZM65.7323 35V26.498H67.2403V35H65.7323ZM70.7013 35V26.498H72.2483L74.9003 31.282L75.7713 33.089H75.8233C75.7886 32.647 75.7453 32.1747 75.6933 31.672C75.6499 31.1607 75.6283 30.6667 75.6283 30.19V26.498H77.0713V35H75.5243L72.8723 30.216L72.0013 28.409H71.9493C71.9839 28.8597 72.0229 29.332 72.0663 29.826C72.1183 30.32 72.1443 30.8053 72.1443 31.282V35H70.7013ZM80.5325 35V26.498H82.8075C84.1075 26.498 85.1215 26.849 85.8495 27.551C86.5775 28.253 86.9415 29.306 86.9415 30.71C86.9415 31.412 86.8462 32.0317 86.6555 32.569C86.4735 33.1063 86.2048 33.557 85.8495 33.921C85.5028 34.2763 85.0782 34.545 84.5755 34.727C84.0815 34.909 83.5182 35 82.8855 35H80.5325ZM82.0405 33.778H82.7035C83.5702 33.778 84.2332 33.531 84.6925 33.037C85.1605 32.5343 85.3945 31.7587 85.3945 30.71C85.3945 29.67 85.1605 28.9117 84.6925 28.435C84.2245 27.9583 83.5615 27.72 82.7035 27.72H82.0405V33.778ZM89.9575 35V26.498H91.4655V35H89.9575ZM94.9265 35V26.498H96.4735L99.1255 31.282L99.9965 33.089H100.048C100.014 32.647 99.9705 32.1747 99.9185 31.672C99.8751 31.1607 99.8535 30.6667 99.8535 30.19V26.498H101.296V35H99.7495L97.0975 30.216L96.2265 28.409H96.1745C96.2091 28.8597 96.2481 29.332 96.2915 29.826C96.3435 30.32 96.3695 30.8053 96.3695 31.282V35H94.9265ZM108.32 35.156C107.748 35.156 107.215 35.0607 106.721 34.87C106.235 34.6793 105.811 34.3977 105.447 34.025C105.091 33.6523 104.814 33.193 104.615 32.647C104.415 32.101 104.316 31.477 104.316 30.775C104.316 30.0817 104.42 29.462 104.628 28.916C104.836 28.3613 105.117 27.8933 105.473 27.512C105.837 27.1307 106.261 26.8403 106.747 26.641C107.241 26.4417 107.769 26.342 108.333 26.342C108.939 26.342 109.451 26.4547 109.867 26.68C110.291 26.8967 110.638 27.1437 110.907 27.421L110.101 28.396C109.884 28.188 109.641 28.0147 109.373 27.876C109.113 27.7287 108.783 27.655 108.385 27.655C108.003 27.655 107.657 27.7287 107.345 27.876C107.041 28.0147 106.777 28.2183 106.552 28.487C106.335 28.747 106.166 29.0677 106.045 29.449C105.923 29.8303 105.863 30.2593 105.863 30.736C105.863 31.7067 106.079 32.4693 106.513 33.024C106.955 33.57 107.605 33.843 108.463 33.843C108.705 33.843 108.935 33.8127 109.152 33.752C109.368 33.6827 109.546 33.5873 109.685 33.466V31.633H108.073V30.398H111.037V34.142C110.751 34.428 110.369 34.6707 109.893 34.87C109.425 35.0607 108.9 35.156 108.32 35.156ZM116.704 35.156C116.132 35.156 115.577 35.0477 115.04 34.831C114.511 34.6143 114.043 34.3067 113.636 33.908L114.52 32.881C114.823 33.167 115.17 33.401 115.56 33.583C115.95 33.7563 116.34 33.843 116.73 33.843C117.215 33.843 117.583 33.7433 117.835 33.544C118.086 33.3447 118.212 33.0803 118.212 32.751C118.212 32.5777 118.177 32.4303 118.108 32.309C118.047 32.1877 117.956 32.0837 117.835 31.997C117.722 31.9017 117.583 31.815 117.419 31.737C117.263 31.659 117.089 31.581 116.899 31.503L115.729 30.996C115.521 30.9093 115.313 30.801 115.105 30.671C114.905 30.541 114.723 30.385 114.559 30.203C114.394 30.021 114.26 29.8087 114.156 29.566C114.06 29.3233 114.013 29.046 114.013 28.734C114.013 28.396 114.082 28.084 114.221 27.798C114.368 27.5033 114.567 27.2477 114.819 27.031C115.07 26.8143 115.369 26.6453 115.716 26.524C116.071 26.4027 116.457 26.342 116.873 26.342C117.367 26.342 117.843 26.4417 118.303 26.641C118.762 26.8317 119.156 27.0917 119.486 27.421L118.719 28.383C118.441 28.1577 118.155 27.98 117.861 27.85C117.566 27.72 117.237 27.655 116.873 27.655C116.465 27.655 116.14 27.746 115.898 27.928C115.655 28.1013 115.534 28.344 115.534 28.656C115.534 28.8207 115.568 28.9637 115.638 29.085C115.716 29.1977 115.815 29.3017 115.937 29.397C116.067 29.4837 116.214 29.566 116.379 29.644C116.543 29.7133 116.712 29.7827 116.886 29.852L118.043 30.333C118.294 30.437 118.524 30.5583 118.732 30.697C118.94 30.8357 119.117 30.996 119.265 31.178C119.421 31.36 119.542 31.5723 119.629 31.815C119.715 32.049 119.759 32.322 119.759 32.634C119.759 32.9807 119.689 33.3057 119.551 33.609C119.412 33.9123 119.208 34.181 118.94 34.415C118.68 34.6403 118.359 34.8223 117.978 34.961C117.605 35.091 117.18 35.156 116.704 35.156Z" fill="#AAAAAA"/>
</svg>
