<svg width="144" height="168" viewBox="0 0 144 168" fill="none" xmlns="http://www.w3.org/2000/svg">
<rect width="144" height="168" rx="4" fill="white"/>
<path d="M28.908 96.6151L58.5428 69.5855L73.5231 70.8882L85.8981 60.1414H103.809L113.253 52" stroke="#00B5A0" stroke-width="2"/>
<path d="M29.8848 100.849L57.5657 82.9379H72.546L92.7367 77.4017L114.881 69.5859" stroke="#00B5A0" stroke-width="2" stroke-dasharray="10 4"/>
<path d="M25 51V104H120" stroke="#E6E6E6"/>
<rect x="25" y="117" width="95" height="8" rx="4" fill="#00B5A0"/>
<rect x="25" y="133" width="48" height="8" rx="4" fill="#00B5A0"/>
<path d="M26.079 35V26.498H27.626L30.278 31.282L31.149 33.089H31.201C31.1663 32.647 31.123 32.1747 31.071 31.672C31.0277 31.1607 31.006 30.6667 31.006 30.19V26.498H32.449V35H30.902L28.25 30.216L27.379 28.409H27.327C27.3617 28.8597 27.4007 29.332 27.444 29.826C27.496 30.32 27.522 30.8053 27.522 31.282V35H26.079ZM39.2123 35.156C38.6576 35.156 38.1506 35.0563 37.6913 34.857C37.2319 34.649 36.8376 34.3543 36.5083 33.973C36.1789 33.583 35.9233 33.115 35.7413 32.569C35.5593 32.023 35.4683 31.4033 35.4683 30.71C35.4683 30.0253 35.5593 29.4143 35.7413 28.877C35.9233 28.331 36.1789 27.8717 36.5083 27.499C36.8376 27.1263 37.2319 26.8403 37.6913 26.641C38.1506 26.4417 38.6576 26.342 39.2123 26.342C39.7669 26.342 40.2739 26.4417 40.7333 26.641C41.1926 26.8403 41.5869 27.1263 41.9163 27.499C42.2543 27.8717 42.5143 28.331 42.6963 28.877C42.8783 29.4143 42.9693 30.0253 42.9693 30.71C42.9693 31.4033 42.8783 32.023 42.6963 32.569C42.5143 33.115 42.2543 33.583 41.9163 33.973C41.5869 34.3543 41.1926 34.649 40.7333 34.857C40.2739 35.0563 39.7669 35.156 39.2123 35.156ZM39.2123 33.843C39.5503 33.843 39.8536 33.7693 40.1223 33.622C40.3909 33.4747 40.6206 33.2667 40.8113 32.998C41.0019 32.7207 41.1493 32.3913 41.2533 32.01C41.3573 31.62 41.4093 31.1867 41.4093 30.71C41.4093 29.7567 41.2099 29.0113 40.8113 28.474C40.4213 27.928 39.8883 27.655 39.2123 27.655C38.5363 27.655 37.9989 27.928 37.6003 28.474C37.2103 29.0113 37.0153 29.7567 37.0153 30.71C37.0153 31.1867 37.0673 31.62 37.1713 32.01C37.2753 32.3913 37.4226 32.7207 37.6133 32.998C37.8039 33.2667 38.0336 33.4747 38.3023 33.622C38.5709 33.7693 38.8743 33.843 39.2123 33.843ZM47.3432 35V27.772H44.8862V26.498H51.3082V27.772H48.8512V35H47.3432ZM54.0239 35V26.498H59.1459V27.772H55.5319V29.943H58.5869V31.217H55.5319V33.726H59.2759V35H54.0239ZM67.9376 35V27.772H65.4806V26.498H71.9026V27.772H69.4456V35H67.9376ZM77.5775 35.156C77.0228 35.156 76.5158 35.0563 76.0565 34.857C75.5972 34.649 75.2028 34.3543 74.8735 33.973C74.5442 33.583 74.2885 33.115 74.1065 32.569C73.9245 32.023 73.8335 31.4033 73.8335 30.71C73.8335 30.0253 73.9245 29.4143 74.1065 28.877C74.2885 28.331 74.5442 27.8717 74.8735 27.499C75.2028 27.1263 75.5972 26.8403 76.0565 26.641C76.5158 26.4417 77.0228 26.342 77.5775 26.342C78.1322 26.342 78.6392 26.4417 79.0985 26.641C79.5578 26.8403 79.9522 27.1263 80.2815 27.499C80.6195 27.8717 80.8795 28.331 81.0615 28.877C81.2435 29.4143 81.3345 30.0253 81.3345 30.71C81.3345 31.4033 81.2435 32.023 81.0615 32.569C80.8795 33.115 80.6195 33.583 80.2815 33.973C79.9522 34.3543 79.5578 34.649 79.0985 34.857C78.6392 35.0563 78.1322 35.156 77.5775 35.156ZM77.5775 33.843C77.9155 33.843 78.2188 33.7693 78.4875 33.622C78.7562 33.4747 78.9858 33.2667 79.1765 32.998C79.3672 32.7207 79.5145 32.3913 79.6185 32.01C79.7225 31.62 79.7745 31.1867 79.7745 30.71C79.7745 29.7567 79.5752 29.0113 79.1765 28.474C78.7865 27.928 78.2535 27.655 77.5775 27.655C76.9015 27.655 76.3642 27.928 75.9655 28.474C75.5755 29.0113 75.3805 29.7567 75.3805 30.71C75.3805 31.1867 75.4325 31.62 75.5365 32.01C75.6405 32.3913 75.7878 32.7207 75.9785 32.998C76.1692 33.2667 76.3988 33.4747 76.6675 33.622C76.9362 33.7693 77.2395 33.843 77.5775 33.843ZM90.7208 35.156C90.1488 35.156 89.5941 35.0477 89.0568 34.831C88.5281 34.6143 88.0601 34.3067 87.6528 33.908L88.5368 32.881C88.8401 33.167 89.1868 33.401 89.5768 33.583C89.9668 33.7563 90.3568 33.843 90.7468 33.843C91.2321 33.843 91.6005 33.7433 91.8518 33.544C92.1031 33.3447 92.2288 33.0803 92.2288 32.751C92.2288 32.5777 92.1941 32.4303 92.1248 32.309C92.0641 32.1877 91.9731 32.0837 91.8518 31.997C91.7391 31.9017 91.6005 31.815 91.4358 31.737C91.2798 31.659 91.1065 31.581 90.9158 31.503L89.7458 30.996C89.5378 30.9093 89.3298 30.801 89.1218 30.671C88.9225 30.541 88.7405 30.385 88.5758 30.203C88.4111 30.021 88.2768 29.8087 88.1728 29.566C88.0775 29.3233 88.0298 29.046 88.0298 28.734C88.0298 28.396 88.0991 28.084 88.2378 27.798C88.3851 27.5033 88.5845 27.2477 88.8358 27.031C89.0871 26.8143 89.3861 26.6453 89.7328 26.524C90.0881 26.4027 90.4738 26.342 90.8898 26.342C91.3838 26.342 91.8605 26.4417 92.3198 26.641C92.7791 26.8317 93.1735 27.0917 93.5028 27.421L92.7358 28.383C92.4585 28.1577 92.1725 27.98 91.8778 27.85C91.5831 27.72 91.2538 27.655 90.8898 27.655C90.4825 27.655 90.1575 27.746 89.9148 27.928C89.6721 28.1013 89.5508 28.344 89.5508 28.656C89.5508 28.8207 89.5855 28.9637 89.6548 29.085C89.7328 29.1977 89.8325 29.3017 89.9538 29.397C90.0838 29.4837 90.2311 29.566 90.3958 29.644C90.5605 29.7133 90.7295 29.7827 90.9028 29.852L92.0598 30.333C92.3111 30.437 92.5408 30.5583 92.7488 30.697C92.9568 30.8357 93.1345 30.996 93.2818 31.178C93.4378 31.36 93.5591 31.5723 93.6458 31.815C93.7325 32.049 93.7758 32.322 93.7758 32.634C93.7758 32.9807 93.7065 33.3057 93.5678 33.609C93.4291 33.9123 93.2255 34.181 92.9568 34.415C92.6968 34.6403 92.3761 34.8223 91.9948 34.961C91.6221 35.091 91.1975 35.156 90.7208 35.156ZM96.6218 35V26.498H101.744V27.772H98.1298V29.943H101.185V31.217H98.1298V33.726H101.874V35H96.6218ZM104.917 35V26.498H106.425V33.726H109.961V35H104.917ZM112.742 35V26.498H117.877V27.772H114.25V30.177H117.344V31.451H114.25V35H112.742Z" fill="#AAAAAA"/>
</svg>
