<svg width="144" height="168" viewBox="0 0 144 168" fill="none" xmlns="http://www.w3.org/2000/svg">
<rect width="144" height="168" rx="4" fill="white"/>
<rect x="25" y="118" width="48" height="8" rx="4" fill="#E6E6E6"/>
<path d="M25 50V105H120" stroke="#E6E6E6"/>
<circle r="2" transform="matrix(1 0 0 -1 37.303 61.3535)" fill="#00B5A0"/>
<circle r="2" transform="matrix(1 0 0 -1 45.5452 77.8398)" fill="#00B5A0"/>
<circle r="2" transform="matrix(1 0 0 -1 45.5452 69.5957)" fill="#00B5A0"/>
<circle r="2" transform="matrix(1 0 0 -1 62.0303 69.5957)" fill="#00B5A0"/>
<circle r="2" transform="matrix(1 0 0 -1 58.9392 74.748)" fill="#00B5A0"/>
<circle r="2" transform="matrix(1 0 0 -1 67.1819 82.9902)" fill="#00B5A0"/>
<circle r="2" transform="matrix(1 0 0 -1 75.4241 91.2344)" fill="#00B5A0"/>
<circle r="2" transform="matrix(1 0 0 -1 72.3333 86.0801)" fill="#00B5A0"/>
<circle r="2" transform="matrix(1 0 0 -1 97.0603 86.0801)" fill="#00B5A0"/>
<circle r="2" transform="matrix(1 0 0 -1 88.8181 91.2344)" fill="#00B5A0"/>
<circle r="2" transform="matrix(1 0 0 -1 113.545 92.2617)" fill="#00B5A0"/>
<circle r="2" transform="matrix(1 0 0 -1 109.424 89.1719)" fill="#00B5A0"/>
<circle r="2" transform="matrix(1 0 0 -1 101.182 92.2617)" fill="#00B5A0"/>
<path d="M24 141V168" stroke="#E6E6E6"/>
<path d="M25 143C25.65 146.422 27.73 153.8 30.85 155.942C34.75 158.62 46.45 164.422 64 163.976" stroke="#00B5A0" stroke-width="2"/>
<path d="M80 141V168" stroke="#E6E6E6"/>
<path d="M81 143.001C81.65 146.422 89 163.977 96.5 160.001C100.68 157.786 109.5 163.975 120 163.977" stroke="#00B5A0" stroke-width="2"/>
<path d="M26.924 35L25.234 26.498H26.781L27.522 30.788C27.5913 31.2473 27.6607 31.7023 27.73 32.153C27.7993 32.6037 27.8687 33.0543 27.938 33.505H27.99C28.0853 33.0543 28.1763 32.6037 28.263 32.153C28.3583 31.6937 28.4537 31.2387 28.549 30.788L29.589 26.498H30.902L31.942 30.788C32.0373 31.23 32.1327 31.6807 32.228 32.14C32.3233 32.5907 32.4187 33.0457 32.514 33.505H32.566C32.6353 33.0457 32.7003 32.5907 32.761 32.14C32.8303 31.6893 32.8997 31.2387 32.969 30.788L33.71 26.498H35.153L33.528 35H31.656L30.603 30.528C30.5337 30.1987 30.4643 29.8737 30.395 29.553C30.3343 29.2237 30.278 28.8943 30.226 28.565H30.174C30.1133 28.8943 30.0483 29.2237 29.979 29.553C29.9183 29.8737 29.8533 30.1987 29.784 30.528L28.757 35H26.924ZM41.0277 35.156C40.473 35.156 39.966 35.0563 39.5067 34.857C39.0473 34.649 38.653 34.3543 38.3237 33.973C37.9943 33.583 37.7387 33.115 37.5567 32.569C37.3747 32.023 37.2837 31.4033 37.2837 30.71C37.2837 30.0253 37.3747 29.4143 37.5567 28.877C37.7387 28.331 37.9943 27.8717 38.3237 27.499C38.653 27.1263 39.0473 26.8403 39.5067 26.641C39.966 26.4417 40.473 26.342 41.0277 26.342C41.5823 26.342 42.0893 26.4417 42.5487 26.641C43.008 26.8403 43.4023 27.1263 43.7317 27.499C44.0697 27.8717 44.3297 28.331 44.5117 28.877C44.6937 29.4143 44.7847 30.0253 44.7847 30.71C44.7847 31.4033 44.6937 32.023 44.5117 32.569C44.3297 33.115 44.0697 33.583 43.7317 33.973C43.4023 34.3543 43.008 34.649 42.5487 34.857C42.0893 35.0563 41.5823 35.156 41.0277 35.156ZM41.0277 33.843C41.3657 33.843 41.669 33.7693 41.9377 33.622C42.2063 33.4747 42.436 33.2667 42.6267 32.998C42.8173 32.7207 42.9647 32.3913 43.0687 32.01C43.1727 31.62 43.2247 31.1867 43.2247 30.71C43.2247 29.7567 43.0253 29.0113 42.6267 28.474C42.2367 27.928 41.7037 27.655 41.0277 27.655C40.3517 27.655 39.8143 27.928 39.4157 28.474C39.0257 29.0113 38.8307 29.7567 38.8307 30.71C38.8307 31.1867 38.8827 31.62 38.9867 32.01C39.0907 32.3913 39.238 32.7207 39.4287 32.998C39.6193 33.2667 39.849 33.4747 40.1177 33.622C40.3863 33.7693 40.6897 33.843 41.0277 33.843ZM47.7854 35V26.498H50.6584C51.1004 26.498 51.5121 26.5413 51.8934 26.628C52.2748 26.7147 52.6041 26.8577 52.8814 27.057C53.1588 27.2477 53.3754 27.5033 53.5314 27.824C53.6961 28.1447 53.7784 28.5433 53.7784 29.02C53.7784 29.67 53.6224 30.1943 53.3104 30.593C53.0071 30.9917 52.5998 31.2777 52.0884 31.451L54.1164 35H52.4264L50.5934 31.672H49.2934V35H47.7854ZM49.2934 30.476H50.5024C51.0831 30.476 51.5251 30.3547 51.8284 30.112C52.1404 29.8693 52.2964 29.5053 52.2964 29.02C52.2964 28.526 52.1404 28.1837 51.8284 27.993C51.5251 27.8023 51.0831 27.707 50.5024 27.707H49.2934V30.476ZM56.7788 35V26.498H58.2868V30.359H58.3258L61.3548 26.498H63.0318L60.4188 29.813L63.4738 35H61.8098L59.5088 30.996L58.2868 32.517V35H56.7788ZM69.7382 35V26.498H71.2462V33.726H74.7822V35H69.7382ZM80.4593 35.156C79.9047 35.156 79.3977 35.0563 78.9383 34.857C78.479 34.649 78.0847 34.3543 77.7553 33.973C77.426 33.583 77.1703 33.115 76.9883 32.569C76.8063 32.023 76.7153 31.4033 76.7153 30.71C76.7153 30.0253 76.8063 29.4143 76.9883 28.877C77.1703 28.331 77.426 27.8717 77.7553 27.499C78.0847 27.1263 78.479 26.8403 78.9383 26.641C79.3977 26.4417 79.9047 26.342 80.4593 26.342C81.014 26.342 81.521 26.4417 81.9803 26.641C82.4397 26.8403 82.834 27.1263 83.1633 27.499C83.5013 27.8717 83.7613 28.331 83.9433 28.877C84.1253 29.4143 84.2163 30.0253 84.2163 30.71C84.2163 31.4033 84.1253 32.023 83.9433 32.569C83.7613 33.115 83.5013 33.583 83.1633 33.973C82.834 34.3543 82.4397 34.649 81.9803 34.857C81.521 35.0563 81.014 35.156 80.4593 35.156ZM80.4593 33.843C80.7973 33.843 81.1007 33.7693 81.3693 33.622C81.638 33.4747 81.8677 33.2667 82.0583 32.998C82.249 32.7207 82.3963 32.3913 82.5003 32.01C82.6043 31.62 82.6563 31.1867 82.6563 30.71C82.6563 29.7567 82.457 29.0113 82.0583 28.474C81.6683 27.928 81.1353 27.655 80.4593 27.655C79.7833 27.655 79.246 27.928 78.8473 28.474C78.4573 29.0113 78.2623 29.7567 78.2623 30.71C78.2623 31.1867 78.3143 31.62 78.4183 32.01C78.5223 32.3913 78.6697 32.7207 78.8603 32.998C79.051 33.2667 79.2807 33.4747 79.5493 33.622C79.818 33.7693 80.1213 33.843 80.4593 33.843ZM90.7791 35.156C90.2071 35.156 89.6741 35.0607 89.1801 34.87C88.6948 34.6793 88.2701 34.3977 87.9061 34.025C87.5508 33.6523 87.2734 33.193 87.0741 32.647C86.8748 32.101 86.7751 31.477 86.7751 30.775C86.7751 30.0817 86.8791 29.462 87.0871 28.916C87.2951 28.3613 87.5768 27.8933 87.9321 27.512C88.2961 27.1307 88.7208 26.8403 89.2061 26.641C89.7001 26.4417 90.2288 26.342 90.7921 26.342C91.3988 26.342 91.9101 26.4547 92.3261 26.68C92.7508 26.8967 93.0974 27.1437 93.3661 27.421L92.5601 28.396C92.3434 28.188 92.1008 28.0147 91.8321 27.876C91.5721 27.7287 91.2428 27.655 90.8441 27.655C90.4628 27.655 90.1161 27.7287 89.8041 27.876C89.5008 28.0147 89.2364 28.2183 89.0111 28.487C88.7944 28.747 88.6254 29.0677 88.5041 29.449C88.3828 29.8303 88.3221 30.2593 88.3221 30.736C88.3221 31.7067 88.5388 32.4693 88.9721 33.024C89.4141 33.57 90.0641 33.843 90.9221 33.843C91.1648 33.843 91.3944 33.8127 91.6111 33.752C91.8278 33.6827 92.0054 33.5873 92.1441 33.466V31.633H90.5321V30.398H93.4961V34.142C93.2101 34.428 92.8288 34.6707 92.3521 34.87C91.8841 35.0607 91.3598 35.156 90.7791 35.156Z" fill="#AAAAAA"/>
</svg>
